#!OML:ASF \\Waltz\H\Terrain\Patient Classification 1\Animal2\Wednesday\Animal2.ASF
:FULLY-SPECIFIED
:DEGREES
3062
root -2.89635 18.2662 -27.2231 0.24777 42.7144 -13.2534
lowerback 1.38618 -0.929898 1.80993
upperback -7.80693 -0.806743 3.03905
thorax -8.98149 -0.350614 2.27108
lowerneck 15.2104 18.1801 16.9598
upperneck -17.6396 25.0682 -23.8852
head -2.23931 13.5226 -10.54
rclavicle 1.60022e-014 2.34566e-014
rhumerus -44.3037 -33.5138 -15.7032
rradius 62.0249
rwrist 17.6711
rhand 12.6928 20.0597
rfingers 7.12502
rthumb 37.6757 -5.82701
lclavicle 1.60022e-014 2.34566e-014
lhumerus -53.5772 23.5658 24.0731
lradius 64.8997
lwrist 15.2519
lhand 12.5083 37.0154
lfingers 7.12502
lthumb 37.5013 -297.051
rfemur -10.9445 1.105 18.4176
rtibia 29.3831
rfoot -24.0339 -3.18686
rtoes 23.5182
lfemur -16.0528 -10.8872 -9.44594
ltibia 27.1287
lfoot -17.8959 -2.31541
ltoes -18.8427
3063
root -2.93429 18.1961 -27.3028 -0.186995 42.5189 -13.6011
lowerback 1.83953 -0.78407 2.28777
upperback -7.67186 -0.578178 2.93705
thorax -9.11493 -0.279287 1.88063
lowerneck 14.2555 18.1537 16.603
upperneck -16.9146 24.963 -23.0528
head -2.07633 13.3762 -10.1044
rclavicle -2.15681e-014 -7.95139e-016
rhumerus -44.5154 -33.0397 -16.1531
rradius 62.2901
rwrist 17.6873
rhand 7.14213 18.944
rfingers 7.12502
rthumb 32.411 -8.17867
lclavicle -2.15681e-014 -7.95139e-016
lhumerus -53.0691 22.8365 25.2419
lradius 64.7146
lwrist 16.994
lhand 5.84383 33.8976
lfingers 7.12502
lthumb 31.1745 -298.734
rfemur -10.6837 1.71184 18.4954
rtibia 29.7207
rfoot -24.0637 -3.66214
rtoes 25.8781
lfemur -16.2056 -10.507 -9.11197
ltibia 27.5834
lfoot -17.9381 -2.17982
ltoes -20.2213
3064
root -2.96543 18.1124 -27.3719 -0.721305 42.3369 -13.931
lowerback 2.03508 -0.763723 2.67905
upperback -7.28407 -0.535175 2.98659
thorax -8.80969 -0.286755 1.70396
lowerneck 14.3491 18.2191 16.2133
upperneck -17.6405 24.9054 -23.1882
head -2.34224 13.3839 -10.1843
rclavicle -1.17879e-013 -1.66979e-014
rhumerus -43.9328 -32.8249 -17.0632
rradius 62.4263
rwrist 17.9169
rhand 2.09193 17.7595
rfingers 7.12502
rthumb 27.5925 -10.2376
lclavicle -1.17879e-013 -1.66979e-014
lhumerus -52.8451 22.5782 26.2795
lradius 64.443
lwrist 18.065
lhand -0.620474 31.2914
lfingers 7.12502
lthumb 24.9959 -300.324
rfemur -10.2785 2.23839 18.5788
rtibia 30.1536
rfoot -24.3267 -4.27259
rtoes 22.3917
lfemur -16.073 -10.154 -8.81455
ltibia 27.704
lfoot -18.1176 -2.50538
ltoes -21.1609
3065
root -2.99311 18.0209 -27.4353 -1.06439 42.0521 -14.1692
lowerback 2.04598 -0.743826 2.90685
upperback -6.931 -0.503045 3.12558
thorax -8.43211 -0.281647 1.71158
lowerneck 15.1386 18.2112 16.3365
upperneck -18.7874 24.8385 -24.0588
head -2.66021 13.4585 -10.6483
rclavicle 1.83876e-014 -9.93923e-015
rhumerus -43.2384 -33.2927 -17.4563
rradius 62.1676
rwrist 20.6475
rhand -1.73357 18.1556
rfingers 7.12502
rthumb 23.9289 -10.3734
lclavicle 1.83876e-014 -9.93923e-015
lhumerus -52.86 22.7264 27.2276
lradius 64.2228
lwrist 18.2182
lhand -6.87857 29.7767
lfingers 7.12502
lthumb 18.9876 -301.13
rfemur -9.95747 2.85958 18.5901
rtibia 30.5807
rfoot -24.6436 -4.50201
rtoes 21.481
lfemur -15.9867 -10.0041 -8.55443
ltibia 27.5437
lfoot -18.7645 -3.69645
ltoes -19.202
3066
root -3.01667 17.9279 -27.4983 -1.17759 41.645 -13.9576
lowerback 2.83273 -0.551163 3.21872
upperback -7.16185 -0.201264 2.73748
thorax -9.15701 -0.17561 1.1155
lowerneck 15.9065 17.9047 17.2538
upperneck -18.7755 24.7118 -24.0993
head -2.67902 13.3761 -10.8676
rclavicle -1.39149e-015 2.06736e-014
rhumerus -44.051 -32.4024 -17.6173
rradius 62.2571
rwrist 22.0336
rhand -6.07892 18.386
rfingers 7.12502
rthumb 19.7565 -10.63
lclavicle -1.39149e-015 2.06736e-014
lhumerus -52.6627 21.686 27.8271
lradius 64.0653
lwrist 17.9115
lhand -12.7192 28.6471
lfingers 7.12502
lthumb 13.3639 -301.801
rfemur -9.52448 3.21193 18.1958
rtibia 30.8331
rfoot -24.5911 -4.18521
rtoes 20.2078
lfemur -15.8018 -9.85208 -8.78667
ltibia 27.4049
lfoot -19.8299 -4.15512
ltoes -18.9006
3067
root -3.03525 17.8526 -27.5603 -1.25183 41.2635 -13.4051
lowerback 3.40207 -0.450007 2.78173
upperback -6.99918 -0.0921928 2.6387
thorax -9.31065 -0.0985612 1.24711
lowerneck 15.6642 17.8644 17.245
upperneck -18.2893 24.7015 -23.6848
head -2.56853 13.3238 -10.6773
rclavicle 7.63333e-014 2.42517e-014
rhumerus -43.8947 -31.9 -18.1414
rradius 62.3487
rwrist 22.8936
rhand -9.93285 17.8452
rfingers 7.12502
rthumb 16.0483 -11.5102
lclavicle 7.63333e-014 2.42517e-014
lhumerus -52.755 21.7026 28.4325
lradius 63.9258
lwrist 16.4983
lhand -17.7112 27.5278
lfingers 7.12502
lthumb 8.54904 -302.665
rfemur -8.83413 3.21626 17.4893
rtibia 30.8451
rfoot -24.2766 -3.65741
rtoes 21.323
lfemur -15.3352 -9.57845 -9.47478
ltibia 27.5855
lfoot -21.0352 -3.379
ltoes -20.4346
3068
root -3.05362 17.7895 -27.6236 -1.34724 41.0006 -13.0188
lowerback 3.94892 -0.407507 2.42758
upperback -6.8958 -0.0477372 2.64537
thorax -9.51974 -0.0535029 1.45219
lowerneck 15.546 17.8624 16.9532
upperneck -17.8807 24.6865 -23.3228
head -2.52908 13.2947 -10.4989
rclavicle 8.32411e-014 3.18055e-014
rhumerus -43.5704 -31.8342 -18.6097
rradius 62.4648
rwrist 23.6558
rhand -12.8788 17.2853
rfingers 7.12502
rthumb 13.21 -12.2761
lclavicle 8.32411e-014 3.18055e-014
lhumerus -53.0718 22.0216 29.0109
lradius 63.8472
lwrist 14.0424
lhand -22.3446 27.1353
lfingers 7.12502
lthumb 4.07604 -302.924
rfemur -8.10072 3.15798 16.9376
rtibia 30.6718
rfoot -23.9707 -3.21577
rtoes 24.0783
lfemur -15.1174 -9.27786 -10.0414
ltibia 28.2393
lfoot -22.1413 -3.11248
ltoes -19.6718
3069
root -3.07512 17.7283 -27.6902 -1.42234 40.8309 -12.7981
lowerback 4.57149 -0.426849 2.23294
upperback -6.98138 -0.058583 2.69154
thorax -9.98668 -0.043548 1.62241
lowerneck 16.4195 17.803 16.9316
upperneck -18.2097 24.6729 -23.4673
head -2.74787 13.3337 -10.6835
rclavicle 4.97459e-014 1.43125e-014
rhumerus -43.3998 -31.9464 -18.9733
rradius 62.6654
rwrist 24.0935
rhand -15.1755 17.087
rfingers 7.12502
rthumb 10.9955 -12.6051
lclavicle 4.97459e-014 1.43125e-014
lhumerus -53.6443 22.1032 29.3222
lradius 63.9014
lwrist 11.7349
lhand -26.2845 27.7753
lfingers 7.12502
lthumb 0.270989 -302.245
rfemur -7.47324 3.12603 16.5605
rtibia 30.4591
rfoot -23.7882 -3.01592
rtoes 25.1653
lfemur -15.5449 -9.10257 -10.4303
ltibia 29.3484
lfoot -22.8341 -2.59854
ltoes -20.3329
3070
root -3.1091 17.6678 -27.7659 -1.59923 40.5987 -12.9029
lowerback 5.28895 -0.482151 2.31756
upperback -7.13798 -0.0795595 2.77934
thorax -10.5957 -0.0561403 1.68691
lowerneck 17.3415 17.9089 16.5196
upperneck -18.8942 24.8199 -23.0565
head -3.18725 13.4113 -10.6996
rclavicle -5.06901e-015 -2.78299e-014
rhumerus -43.2187 -32.2755 -19.544
rradius 62.9322
rwrist 24.3343
rhand -16.8372 16.9306
rfingers 7.12502
rthumb 9.39242 -12.8402
lclavicle -5.06901e-015 -2.78299e-014
lhumerus -54.3303 22.3736 29.1893
lradius 64.0267
lwrist 9.89077
lhand -29.0378 29.2336
lfingers 7.12502
lthumb -2.38825 -300.8
rfemur -7.14275 3.46689 16.5364
rtibia 30.363
rfoot -23.7814 -3.2642
rtoes 24.0433
lfemur -16.4557 -8.9187 -10.4296
ltibia 30.7573
lfoot -23.0816 -2.04349
ltoes -21.197
3071
root -3.16118 17.6105 -27.8343 -1.616 40.3734 -12.6964
lowerback 6.12533 -0.530875 2.02003
upperback -7.30579 -0.135334 2.804
thorax -11.2909 -0.0574928 1.90777
lowerneck 17.0257 17.7649 16.6611
upperneck -17.9554 24.7076 -22.9115
head -2.88713 13.3309 -10.5571
rclavicle 9.30809e-014 2.14687e-014
rhumerus -43.5608 -31.8548 -20.3779
rradius 63.712
rwrist 23.6432
rhand -18.2759 16.4369
rfingers 7.12502
rthumb 8.0041 -13.3915
lclavicle 9.30809e-014 2.14687e-014
lhumerus -55.0089 22.9679 28.7706
lradius 63.9618
lwrist 8.13633
lhand -30.5757 30.8991
lfingers 7.12502
lthumb -3.87338 -299.156
rfemur -6.96411 4.30875 16.3891
rtibia 30.5338
rfoot -24.0489 -3.84578
rtoes 22.0404
lfemur -17.3875 -8.44619 -10.575
ltibia 32.2461
lfoot -23.3723 -2.38826
ltoes -20.9184
3072
root -3.21747 17.5582 -27.8824 -0.961937 40.4474 -11.4279
lowerback 6.70598 -0.597867 0.787311
upperback -7.38479 -0.376788 2.61007
thorax -11.7191 -0.0798198 2.44334
lowerneck 15.7438 17.9729 15.6831
upperneck -16.4286 24.9036 -21.0248
head -2.61732 13.2613 -9.62591
rclavicle -1.39149e-015 -1.90833e-014
rhumerus -43.4403 -32.8197 -20.6124
rradius 63.9082
rwrist 23.896
rhand -18.5841 16.6987
rfingers 7.12502
rthumb 7.70661 -13.1409
lclavicle -1.39149e-015 -1.90833e-014
lhumerus -55.3807 23.3881 28.8147
lradius 63.7853
lwrist 8.67326
lhand -33.0902 32.2394
lfingers 7.12502
lthumb -6.30128 -297.874
rfemur -6.80566 4.95616 15.4325
rtibia 30.9765
rfoot -24.4919 -4.85738
rtoes 18.7834
lfemur -18.2585 -7.99143 -11.5927
ltibia 33.5851
lfoot -23.6846 -3.10092
ltoes -20.1147
